<?xml version="1.0" encoding="UTF-8" standalone="no"?>
<!-- Created with Inkscape (http://www.inkscape.org/) -->

<svg
   xmlns:dc="http://purl.org/dc/elements/1.1/"
   xmlns:cc="http://creativecommons.org/ns#"
   xmlns:rdf="http://www.w3.org/1999/02/22-rdf-syntax-ns#"
   xmlns:svg="http://www.w3.org/2000/svg"
   xmlns="http://www.w3.org/2000/svg"
   xmlns:sodipodi="http://sodipodi.sourceforge.net/DTD/sodipodi-0.dtd"
   xmlns:inkscape="http://www.inkscape.org/namespaces/inkscape"
   width="210mm"
   height="297mm"
   id="svg2"
   version="1.1"
   inkscape:version="0.48.3.1 r9886"
   sodipodi:docname="parma-logo.svg">
  <defs
     id="defs4">
    <marker
       inkscape:stockid="Arrow2Mend"
       orient="auto"
       refY="0.0"
       refX="0.0"
       id="Arrow2Mend"
       style="overflow:visible;">
      <path
         id="path3790"
         style="fill-rule:evenodd;stroke-width:0.62500000;stroke-linejoin:round;"
         d="M 8.7185878,4.0337352 L -2.2072895,0.016013256 L 8.7185884,-4.0017078 C 6.9730900,-1.6296469 6.9831476,1.6157441 8.7185878,4.0337352 z "
         transform="scale(0.6) rotate(180) translate(0,0)" />
    </marker>
    <marker
       inkscape:stockid="Arrow1Mend"
       orient="auto"
       refY="0.0"
       refX="0.0"
       id="Arrow1Mend"
       style="overflow:visible;">
      <path
         id="path3772"
         d="M 0.0,0.0 L 5.0,-5.0 L -12.5,0.0 L 5.0,5.0 L 0.0,0.0 z "
         style="fill-rule:evenodd;stroke:#000000;stroke-width:1.0pt;"
         transform="scale(0.4) rotate(180) translate(10,0)" />
    </marker>
    <marker
       inkscape:stockid="Arrow2Mstart"
       orient="auto"
       refY="0.0"
       refX="0.0"
       id="Arrow2Mstart"
       style="overflow:visible">
      <path
         id="path3787"
         style="fill-rule:evenodd;stroke-width:0.62500000;stroke-linejoin:round"
         d="M 8.7185878,4.0337352 L -2.2072895,0.016013256 L 8.7185884,-4.0017078 C 6.9730900,-1.6296469 6.9831476,1.6157441 8.7185878,4.0337352 z "
         transform="scale(0.6) translate(0,0)" />
    </marker>
    <marker
       inkscape:stockid="Arrow1Mstart"
       orient="auto"
       refY="0.0"
       refX="0.0"
       id="Arrow1Mstart"
       style="overflow:visible">
      <path
         id="path3769"
         d="M 0.0,0.0 L 5.0,-5.0 L -12.5,0.0 L 5.0,5.0 L 0.0,0.0 z "
         style="fill-rule:evenodd;stroke:#000000;stroke-width:1.0pt"
         transform="scale(0.4) translate(10,0)" />
    </marker>
    <marker
       inkscape:stockid="Arrow2Lend"
       orient="auto"
       refY="0.0"
       refX="0.0"
       id="Arrow2Lend"
       style="overflow:visible;">
      <path
         id="path3784"
         style="fill-rule:evenodd;stroke-width:0.62500000;stroke-linejoin:round;"
         d="M 8.7185878,4.0337352 L -2.2072895,0.016013256 L 8.7185884,-4.0017078 C 6.9730900,-1.6296469 6.9831476,1.6157441 8.7185878,4.0337352 z "
         transform="scale(1.1) rotate(180) translate(1,0)" />
    </marker>
    <marker
       inkscape:stockid="Arrow2Lstart"
       orient="auto"
       refY="0.0"
       refX="0.0"
       id="Arrow2Lstart"
       style="overflow:visible">
      <path
         id="path3781"
         style="fill-rule:evenodd;stroke-width:0.62500000;stroke-linejoin:round"
         d="M 8.7185878,4.0337352 L -2.2072895,0.016013256 L 8.7185884,-4.0017078 C 6.9730900,-1.6296469 6.9831476,1.6157441 8.7185878,4.0337352 z "
         transform="scale(1.1) translate(1,0)" />
    </marker>
  </defs>
  <sodipodi:namedview
     id="base"
     pagecolor="#ffffff"
     bordercolor="#666666"
     borderopacity="1.0"
     inkscape:pageopacity="0.0"
     inkscape:pageshadow="2"
     inkscape:zoom="0.98994949"
     inkscape:cx="720.10552"
     inkscape:cy="580.97261"
     inkscape:document-units="px"
     inkscape:current-layer="layer1"
     showgrid="false"
     inkscape:window-width="1600"
     inkscape:window-height="838"
     inkscape:window-x="-8"
     inkscape:window-y="-8"
     inkscape:window-maximized="1"
     showguides="true"
     inkscape:guide-bbox="true">
    <sodipodi:guide
       orientation="0,1"
       position="184.60538,651.67466"
       id="guide6722" />
  </sodipodi:namedview>
  <metadata
     id="metadata7">
    <rdf:RDF>
      <cc:Work
         rdf:about="">
        <dc:format>image/svg+xml</dc:format>
        <dc:type
           rdf:resource="http://purl.org/dc/dcmitype/StillImage" />
        <dc:title></dc:title>
      </cc:Work>
    </rdf:RDF>
  </metadata>
  <g
     inkscape:label="Ebene 1"
     inkscape:groupmode="layer"
     id="layer1">
    <g
       id="g8292"
       inkscape:export-filename="C:\Users\holzhauer\workspace\ParMa\doc\resources\parma-logo.png"
       inkscape:export-xdpi="125.31"
       inkscape:export-ydpi="125.31">
      <g
         transform="matrix(1.2320891,0,0,1.2320891,-166.25228,-86.153214)"
         id="g8278">
        <g
           id="g6724"
           transform="matrix(4.7859519,0,0,4.7859519,-583.70034,-1402.8989)">
          <path
             d="m 161.09549,384.76999 c 0.13345,0.0529 0.3601,0.0928 0.67993,0.11963 0.31982,0.0269 0.65307,0.0403 0.99976,0.0403 1.14663,2e-5 2.08006,-0.33324 2.80029,-0.99975 0.7202,-0.66649 1.08031,-1.68008 1.08032,-3.04078 -1e-5,-0.79994 -0.11333,-1.47316 -0.33996,-2.01965 -0.22666,-0.54645 -0.53998,-0.98631 -0.93994,-1.31958 -0.4,-0.33323 -0.86672,-0.56659 -1.40015,-0.70007 -0.53346,-0.13344 -1.09356,-0.20017 -1.6803,-0.2002 -0.16033,3e-5 -0.3471,3e-5 -0.5603,0 -0.21323,3e-5 -0.42644,0.0134 -0.63965,0.0403 z m -6.92017,-13.52051 c 0.61361,-0.0797 1.55375,-0.19284 2.82044,-0.33935 1.26667,-0.14646 2.85989,-0.2197 4.77966,-0.21973 1.41356,3e-5 2.84036,0.13329 4.2804,0.39978 1.44,0.26655 2.73985,0.76643 3.89953,1.49963 1.15965,0.73327 2.09959,1.76659 2.81983,3.09998 0.72019,1.33344 1.0803,3.06663 1.08032,5.19958 -2e-5,1.89374 -0.28668,3.46722 -0.85999,4.72046 -0.57334,1.25327 -1.33343,2.25323 -2.28027,2.99988 -0.94688,0.74667 -2.02699,1.28012 -3.24036,1.60034 -1.21339,0.32024 -2.45973,0.48036 -3.73901,0.48035 -0.50701,10e-6 -1.02052,-0.0201 -1.54053,-0.0604 -0.52003,-0.0403 -0.88664,-0.0869 -1.09985,-0.13977 l 0,9.32007 c -0.69337,0.13347 -1.32,0.22685 -1.87988,0.28015 -0.55991,0.0533 -1.07993,0.08 -1.56006,0.08 -0.93344,0 -2.09351,-0.12004 -3.48023,-0.36011 z"
             style="font-size:40px;font-style:normal;font-variant:normal;font-weight:normal;font-stretch:normal;line-height:125%;letter-spacing:0px;word-spacing:0px;fill:#236264;fill-opacity:1;stroke:none;font-family:Aller Display;-inkscape-font-specification:Aller Display"
             id="path6703"
             inkscape:connector-curvature="0" />
          <path
             d="m 198.39041,379.32932 c 1.25325,-0.15949 2.5533,-0.29255 3.90015,-0.39917 1.34683,-0.10659 2.62002,-0.1599 3.81958,-0.15992 3.22671,2e-5 5.64675,0.60671 7.26013,1.82007 1.61334,1.2134 2.42002,2.91343 2.42004,5.1001 -2e-5,0.82602 -0.0934,1.54583 -0.28015,2.15942 -0.18678,0.61362 -0.41343,1.14035 -0.67993,1.5802 -0.26654,0.43987 -0.54649,0.79306 -0.83984,1.05957 -0.2934,0.26653 -0.53326,0.47995 -0.71961,0.64026 l 4.55933,8.71948 c -0.53306,0.10743 -1.12632,0.18779 -1.77979,0.24109 -0.6535,0.0533 -1.28664,0.08 -1.89941,0.08 -0.74709,0 -1.4673,-0.0267 -2.16065,-0.08 -0.69337,-0.0533 -1.26669,-0.13366 -1.71997,-0.24109 l -4.43969,-9.43969 0.5603,-0.31983 c 0.93261,-0.53303 1.57225,-1.09964 1.91894,-1.69983 0.34667,-0.60016 0.52001,-1.24693 0.52002,-1.9403 -1e-5,-0.69335 -0.20651,-1.25996 -0.6195,-1.69983 -0.41302,-0.43985 -1.07281,-0.65978 -1.97937,-0.65979 -0.50701,1e-5 -0.89397,0.0265 -1.16089,0.0793 l 0,15.72022 c -0.69337,0.13346 -1.32,0.22013 -1.87988,0.26001 -0.55991,0.0399 -1.05307,0.0598 -1.4795,0.0598 -0.45329,0 -0.94666,-0.0199 -1.4801,-0.0598 -0.53345,-0.0399 -1.14685,-0.12655 -1.84021,-0.26001 z"
             style="font-size:40px;font-style:normal;font-variant:normal;font-weight:normal;font-stretch:normal;line-height:125%;letter-spacing:0px;word-spacing:0px;fill:#236264;fill-opacity:1;stroke:none;font-family:Aller Display;-inkscape-font-specification:Aller Display"
             id="path6707"
             inkscape:connector-curvature="0" />
          <path
             d="m 221.34329,371.24948 c 0.55989,-0.0797 1.16658,-0.15296 1.82007,-0.21973 0.65348,-0.0667 1.26017,-0.10006 1.82007,-0.10009 0.53303,3e-5 1.11307,0.0334 1.74011,0.10009 0.62703,0.0668 1.20706,0.14001 1.74011,0.21973 l 5.67994,14.88037 5.88012,-14.88037 c 0.53302,-0.0797 1.07298,-0.15296 1.61988,-0.21973 0.54685,-0.0667 1.0868,-0.10006 1.61987,-0.10009 0.55987,3e-5 1.13319,0.0334 1.71997,0.10009 0.58672,0.0668 1.16005,0.14001 1.71997,0.21973 l 1.35986,28.56079 c -0.42646,0.0797 -0.89968,0.15971 -1.41967,0.23987 -0.52005,0.0802 -1.2069,0.12024 -2.06055,0.12024 -0.93264,0 -2.03901,-0.12004 -3.31909,-0.36011 l -0.56031,-16.56006 -4.40063,10.91919 c -0.47935,0.0806 -0.95908,0.14751 -1.43921,0.20081 -0.48016,0.0533 -0.92043,0.08 -1.3208,0.0799 -0.39959,1e-5 -0.8128,-0.0201 -1.23962,-0.0604 -0.42686,-0.0403 -0.86692,-0.11372 -1.3202,-0.22034 l -3.91967,-10.75927 -0.43946,16.40014 c -1.12061,0.24007 -2.1875,0.36011 -3.20068,0.36011 -0.93344,0 -2.01335,-0.12004 -3.23975,-0.36011 z"
             style="font-size:40px;font-style:normal;font-variant:normal;font-weight:normal;font-stretch:normal;line-height:125%;letter-spacing:0px;word-spacing:0px;fill:#236264;fill-opacity:1;stroke:none;font-family:Aller Display;-inkscape-font-specification:Aller Display"
             id="path6709"
             inkscape:connector-curvature="0" />
        </g>
        <g
           style="font-size:40px;font-style:normal;font-variant:normal;font-weight:bold;font-stretch:normal;text-align:start;line-height:125%;letter-spacing:0px;word-spacing:0px;writing-mode:lr-tb;text-anchor:start;fill:#000000;fill-opacity:1;stroke:none;font-family:Arial;-inkscape-font-specification:Arial Bold"
           id="text6693"
           transform="matrix(4.7859519,0,0,4.7859519,-935.64585,-1155.0125)">
          <path
             d="m 266.16992,327.16486 4.70703,0 c -0.74221,1.51043 -1.36395,3.44077 -1.86523,5.79101 -0.50132,2.35027 -0.75198,3.99415 -0.75195,4.93164 -3e-5,1.21095 0.22784,2.79298 0.68359,4.7461 0.45571,1.95312 1.02862,3.71094 1.71875,5.27343 l -4.60938,0 c -0.0651,-0.26041 -0.18231,-0.625 -0.35156,-1.09375 -0.27345,-0.78124 -0.50783,-1.56249 -0.70312,-2.34375 -1.60158,2.60417 -3.88674,3.90625 -6.85547,3.90625 -2.79949,0 -5.00326,-1.13606 -6.61133,-3.4082 -1.60808,-2.27213 -2.41211,-4.92512 -2.41211,-7.95898 0,-2.86457 0.80078,-5.29947 2.40234,-7.30469 1.60156,-2.00519 3.82812,-3.00779 6.67969,-3.00781 2.81249,2e-5 5.08462,1.34767 6.81641,4.04296 0.23436,-0.9505 0.61847,-2.1419 1.15234,-3.57421 z m -11.42578,10.42968 c -10e-6,1.91407 0.40689,3.46681 1.2207,4.65821 0.8138,1.19141 1.87174,1.78711 3.17383,1.78711 1.24999,0 2.27212,-0.52734 3.06641,-1.58204 0.79425,-1.05468 1.19139,-2.67577 1.1914,-4.86328 -10e-6,-2.14842 -0.42319,-3.77602 -1.26953,-4.88281 -0.84636,-1.10675 -1.8685,-1.66014 -3.0664,-1.66016 -1.25001,2e-5 -2.28191,0.57294 -3.09571,1.71875 -0.81381,1.14585 -1.22071,2.75392 -1.2207,4.82422 z"
             id="path6700"
             inkscape:connector-curvature="0"
             style="fill:#000000" />
        </g>
        <g
           transform="matrix(4.7859519,0,0,4.7859519,-580.07444,-1155.0125)"
           id="g6718"
           style="font-size:40px;font-style:normal;font-variant:normal;font-weight:bold;font-stretch:normal;text-align:start;line-height:125%;letter-spacing:0px;word-spacing:0px;writing-mode:lr-tb;text-anchor:start;fill:#1a1a1a;fill-opacity:1;stroke:none;font-family:Arial;-inkscape-font-specification:Arial Bold">
          <path
             inkscape:connector-curvature="0"
             id="path6720"
             d="m 266.16992,327.16486 4.70703,0 c -0.74221,1.51043 -1.36395,3.44077 -1.86523,5.79101 -0.50132,2.35027 -0.75198,3.99415 -0.75195,4.93164 -3e-5,1.21095 0.22784,2.79298 0.68359,4.7461 0.45571,1.95312 1.02862,3.71094 1.71875,5.27343 l -4.60938,0 c -0.0651,-0.26041 -0.18231,-0.625 -0.35156,-1.09375 -0.27345,-0.78124 -0.50783,-1.56249 -0.70312,-2.34375 -1.60158,2.60417 -3.88674,3.90625 -6.85547,3.90625 -2.79949,0 -5.00326,-1.13606 -6.61133,-3.4082 -1.60808,-2.27213 -2.41211,-4.92512 -2.41211,-7.95898 0,-2.86457 0.80078,-5.29947 2.40234,-7.30469 1.60156,-2.00519 3.82812,-3.00779 6.67969,-3.00781 2.81249,2e-5 5.08462,1.34767 6.81641,4.04296 0.23436,-0.9505 0.61847,-2.1419 1.15234,-3.57421 z m -11.42578,10.42968 c -10e-6,1.91407 0.40689,3.46681 1.2207,4.65821 0.8138,1.19141 1.87174,1.78711 3.17383,1.78711 1.24999,0 2.27212,-0.52734 3.06641,-1.58204 0.79425,-1.05468 1.19139,-2.67577 1.1914,-4.86328 -10e-6,-2.14842 -0.42319,-3.77602 -1.26953,-4.88281 -0.84636,-1.10675 -1.8685,-1.66014 -3.0664,-1.66016 -1.25001,2e-5 -2.28191,0.57294 -3.09571,1.71875 -0.81381,1.14585 -1.22071,2.75392 -1.2207,4.82422 z"
             style="fill:#1a1a1a" />
        </g>
      </g>
      <rect
         y="360.40768"
         x="10.101525"
         height="194.95946"
         width="718.21844"
         id="rect8290"
         style="fill:none;stroke:none" />
    </g>
  </g>
</svg>
