<?xml version="1.0" encoding="UTF-8" standalone="no"?>
<!DOCTYPE svg PUBLIC "-//W3C//DTD SVG 1.1//EN"
 "http://www.w3.org/Graphics/SVG/1.1/DTD/svg11.dtd">
<!-- Generated by graphviz version 2.26.3 (20100126.1600)
 -->
<!-- Title: G Pages: 1 -->
<svg width="297pt" height="192pt"
 viewBox="0.00 0.00 297.00 192.00" xmlns="http://www.w3.org/2000/svg" xmlns:xlink="http://www.w3.org/1999/xlink">
<g id="graph1" class="graph" transform="scale(1 1) rotate(0) translate(4 188)">
<title>G</title>
<polygon fill="white" stroke="white" points="-4,5 -4,-188 294,-188 294,5 -4,5"/>
<!-- c0 -->
<g id="node1" class="node"><title>c0</title>
<a xlink:href="./PmParameterReader.html" xlink:title="de.cesr.parma.core.PmParameterReader" target="classFrame">
<polygon fill="none" stroke="black" points="27,-148 27,-179 133,-179 133,-148 27,-148"/>
<text text-anchor="start" x="53" y="-167.167" font-family="arial" font-size="10.00"> «interface» </text>
<text text-anchor="start" x="31.5" y="-154.667" font-family="arial" font-size="10.00"> PmParameterReader </text>
</a>
</g>
<!-- c3 -->
<g id="node4" class="node"><title>c3</title>
<a xlink:href="./PmAbstractParameterReader.html" xlink:title="de.cesr.parma.core.PmAbstractParameterReader" target="classFrame">
<polygon fill="none" stroke="black" points="8,-80 8,-99 152,-99 152,-80 8,-80"/>
<text text-anchor="start" x="12.5" y="-87.1667" font-family="arial italic" font-size="10.00"> PmAbstractParameterReader </text>
</a>
</g>
<!-- c0&#45;&gt;c3 -->
<g id="edge4" class="edge"><title>c0:p&#45;&gt;c3:p</title>
<path fill="none" stroke="black" stroke-dasharray="5,2" d="M80,-138.199C80,-124.83 80,-109.309 80,-99.57"/>
<polygon fill="none" stroke="black" points="76.5001,-138.306 80,-148.307 83.5001,-138.307 76.5001,-138.306"/>
</g>
<!-- c1 -->
<g id="node2" class="node"><title>c1</title>
<a xlink:href="./PmParameterManager.html" xlink:title="de.cesr.parma.core.PmParameterManager" target="classFrame">
<polygon fill="none" stroke="black" points="24,-8 24,-27 137,-27 137,-8 24,-8"/>
<text text-anchor="start" x="28.5" y="-15.1667" font-family="arial" font-size="10.00"> PmParameterManager </text>
</a>
</g>
<!-- c2 -->
<g id="node3" class="node"><title>c2</title>
<a xlink:href="./PmParameterDefinition.html" xlink:title="de.cesr.parma.core.PmParameterDefinition" target="classFrame">
<polygon fill="none" stroke="black" points="167,-148 167,-179 282,-179 282,-148 167,-148"/>
<text text-anchor="start" x="197.5" y="-167.167" font-family="arial" font-size="10.00"> «interface» </text>
<text text-anchor="start" x="171.5" y="-154.667" font-family="arial" font-size="10.00"> PmParameterDefinition </text>
</a>
</g>
<!-- c3&#45;&gt;c1 -->
<g id="edge2" class="edge"><title>c3:p&#45;&gt;c1:p</title>
<path fill="none" stroke="black" d="M80,-70.2426C80,-56.3573 80,-38.393 80,-27.5564"/>
<polygon fill="none" stroke="black" points="76.5001,-70.2897 80,-80.2898 83.5001,-70.2898 76.5001,-70.2897"/>
</g>
</g>
</svg>
